<svg width="106" height="86" viewBox="0 0 106 86" fill="none" xmlns="http://www.w3.org/2000/svg">
<rect x="0.5" y="0.5" width="105" height="85" rx="9.5" fill="url(#paint0_linear_122_4)" fill-opacity="0.74"/>
<path d="M13.8492 36.3055C16.6043 18.9391 32.916 7.09422 50.2824 9.84925L65.4869 12.2613C82.8534 15.0163 94.6983 31.328 91.9432 48.6945C89.1882 66.0609 72.8765 77.9058 55.5101 75.1508L40.3056 72.7387C22.9391 69.9837 11.0942 53.672 13.8492 36.3055Z" fill="white" stroke="url(#paint1_linear_122_4)" stroke-width="5"/>
<path d="M14.0221 36.4025C16.8016 18.8816 33.2583 6.9314 50.7792 9.71093L65.2235 12.0024C82.7444 14.7819 94.6946 31.2386 91.9151 48.7595C89.1355 66.2804 72.6788 78.2306 55.158 75.451L40.7137 73.1596C23.1928 70.3801 11.2426 53.9233 14.0221 36.4025Z" fill="white" stroke="url(#paint2_linear_122_4)"/>
<path d="M21.6553 9.74925C21.8157 8.73798 22.7656 8.04823 23.7768 8.20866C24.7881 8.36909 25.4779 9.31894 25.3174 10.3302L17.1026 62.113C16.9421 63.1243 15.9923 63.8141 14.981 63.6536C13.9697 63.4932 13.28 62.5434 13.4404 61.5321L21.6553 9.74925Z" fill="url(#paint3_linear_122_4)" stroke="black"/>
<mask id="path-5-inside-1_122_4" fill="white">
<path d="M17.3089 62.9299C17.4337 62.1432 18.1726 61.6067 18.9592 61.7315L78.8828 71.2378C79.6695 71.3626 80.206 72.1015 80.0812 72.8882C79.9564 73.6748 79.2176 74.2114 78.4309 74.0866L18.5073 64.5803C17.7206 64.4555 17.1841 63.7166 17.3089 62.9299Z"/>
<path d="M21.6345 35.6632C21.7593 34.8765 22.4982 34.34 23.2848 34.4648L83.2084 43.9711C83.9951 44.0959 84.5317 44.8348 84.4069 45.6215C84.2821 46.4081 83.5432 46.9447 82.7565 46.8199L22.8329 37.3135C22.0462 37.1887 21.5097 36.4498 21.6345 35.6632Z"/>
<path d="M21.6345 35.6632C21.7593 34.8765 22.4982 34.34 23.2848 34.4648L83.2084 43.9711C83.9951 44.0959 84.5317 44.8348 84.4069 45.6215C84.2821 46.4081 83.5432 46.9447 82.7565 46.8199L22.8329 37.3135C22.0462 37.1887 21.5097 36.4498 21.6345 35.6632Z"/>
<path d="M21.6345 35.6632C21.7593 34.8765 22.4982 34.34 23.2848 34.4648L83.2084 43.9711C83.9951 44.0959 84.5317 44.8348 84.4069 45.6215C84.2821 46.4081 83.5432 46.9447 82.7565 46.8199L22.8329 37.3135C22.0462 37.1887 21.5097 36.4498 21.6345 35.6632Z"/>
<path d="M25.788 9.48169C25.9127 8.69503 26.6516 8.15848 27.4383 8.28328L87.3619 17.7896C88.1486 17.9144 88.6851 18.6533 88.5603 19.44C88.4355 20.2266 87.6966 20.7632 86.91 20.6384L26.9864 11.132C26.1997 11.0072 25.6632 10.2684 25.788 9.48169Z"/>
</mask>
<path d="M17.3089 62.9299C17.4337 62.1432 18.1726 61.6067 18.9592 61.7315L78.8828 71.2378C79.6695 71.3626 80.206 72.1015 80.0812 72.8882C79.9564 73.6748 79.2176 74.2114 78.4309 74.0866L18.5073 64.5803C17.7206 64.4555 17.1841 63.7166 17.3089 62.9299Z" fill="url(#paint4_linear_122_4)"/>
<path d="M21.6345 35.6632C21.7593 34.8765 22.4982 34.34 23.2848 34.4648L83.2084 43.9711C83.9951 44.0959 84.5317 44.8348 84.4069 45.6215C84.2821 46.4081 83.5432 46.9447 82.7565 46.8199L22.8329 37.3135C22.0462 37.1887 21.5097 36.4498 21.6345 35.6632Z" fill="url(#paint5_linear_122_4)"/>
<path d="M21.6345 35.6632C21.7593 34.8765 22.4982 34.34 23.2848 34.4648L83.2084 43.9711C83.9951 44.0959 84.5317 44.8348 84.4069 45.6215C84.2821 46.4081 83.5432 46.9447 82.7565 46.8199L22.8329 37.3135C22.0462 37.1887 21.5097 36.4498 21.6345 35.6632Z" fill="url(#paint6_linear_122_4)"/>
<path d="M21.6345 35.6632C21.7593 34.8765 22.4982 34.34 23.2848 34.4648L83.2084 43.9711C83.9951 44.0959 84.5317 44.8348 84.4069 45.6215C84.2821 46.4081 83.5432 46.9447 82.7565 46.8199L22.8329 37.3135C22.0462 37.1887 21.5097 36.4498 21.6345 35.6632Z" fill="url(#paint7_linear_122_4)"/>
<path d="M25.788 9.48169C25.9127 8.69503 26.6516 8.15848 27.4383 8.28328L87.3619 17.7896C88.1486 17.9144 88.6851 18.6533 88.5603 19.44C88.4355 20.2266 87.6966 20.7632 86.91 20.6384L26.9864 11.132C26.1997 11.0072 25.6632 10.2684 25.788 9.48169Z" fill="url(#paint8_linear_122_4)"/>
<path d="M23.2065 34.9586L83.1301 44.4649L83.2868 43.4773L23.3632 33.9709L23.2065 34.9586ZM82.8349 46.326L22.9112 36.8197L22.7546 37.8074L82.6782 47.3137L82.8349 46.326ZM22.9112 36.8197C22.3973 36.7382 22.0468 36.2555 22.1283 35.7415L21.1407 35.5848C20.9726 36.6442 21.6952 37.6393 22.7546 37.8074L22.9112 36.8197ZM83.913 45.5431C83.8315 46.057 83.3488 46.4076 82.8349 46.326L82.6782 47.3137C83.7376 47.4818 84.7326 46.7592 84.9007 45.6998L83.913 45.5431ZM83.1301 44.4649C83.644 44.5465 83.9946 45.0292 83.913 45.5431L84.9007 45.6998C85.0687 44.6404 84.3462 43.6453 83.2868 43.4773L83.1301 44.4649ZM23.3632 33.9709C22.3038 33.8029 21.3087 34.5254 21.1407 35.5848L22.1283 35.7415C22.2098 35.2276 22.6926 34.8771 23.2065 34.9586L23.3632 33.9709ZM18.8025 62.7191L78.7261 72.2255L79.0395 70.2502L19.1159 60.7438L18.8025 62.7191ZM78.5876 73.0989L18.664 63.5926L18.3506 65.5679L78.2742 75.0742L78.5876 73.0989ZM27.2816 9.27093L87.2052 18.7773L87.5186 16.802L27.595 7.29563L27.2816 9.27093ZM87.0666 19.6507L27.143 10.1444L26.8297 12.1197L86.7533 21.626L87.0666 19.6507ZM27.143 10.1444C26.9018 10.1061 26.7373 9.87958 26.7756 9.63838L24.8003 9.32501C24.589 10.6571 25.4976 11.9084 26.8297 12.1197L27.143 10.1444ZM87.5727 19.2833C87.5344 19.5245 87.3079 19.689 87.0666 19.6507L86.7533 21.626C88.0854 21.8374 89.3366 20.9288 89.548 19.5966L87.5727 19.2833ZM87.2052 18.7773C87.4464 18.8155 87.6109 19.0421 87.5727 19.2833L89.548 19.5966C89.7593 18.2645 88.8507 17.0133 87.5186 16.802L87.2052 18.7773ZM27.595 7.29563C26.2629 7.0843 25.0116 7.99288 24.8003 9.32501L26.7756 9.63838C26.8139 9.39717 27.0404 9.23266 27.2816 9.27093L27.595 7.29563ZM18.664 63.5926C18.4228 63.5543 18.2583 63.3278 18.2965 63.0866L16.3212 62.7732C16.1099 64.1054 17.0185 65.3566 18.3506 65.5679L18.664 63.5926ZM79.0936 72.7315C79.0553 72.9727 78.8288 73.1372 78.5876 73.0989L78.2742 75.0742C79.6063 75.2856 80.8576 74.377 81.0689 73.0449L79.0936 72.7315ZM78.7261 72.2255C78.9673 72.2637 79.1318 72.4903 79.0936 72.7315L81.0689 73.0449C81.2802 71.7127 80.3716 70.4615 79.0395 70.2502L78.7261 72.2255ZM19.1159 60.7438C17.7838 60.5325 16.5326 61.4411 16.3212 62.7732L18.2965 63.0866C18.3348 62.8454 18.5613 62.6809 18.8025 62.7191L19.1159 60.7438Z" fill="black" mask="url(#path-5-inside-1_122_4)"/>
<rect x="40.0715" y="13.8532" width="22.2035" height="22.4872" rx="11.1017" transform="rotate(9.01434 40.0715 13.8532)" fill="url(#paint9_linear_122_4)" stroke="black"/>
<rect x="44.3435" y="19.1202" width="11.9469" height="13.4219" rx="5.97343" transform="rotate(9.01434 44.3435 19.1202)" fill="white" stroke="black"/>
<rect x="51.5886" y="27.134" width="13.4513" height="2.33498" transform="rotate(9.01435 51.5886 27.134)" fill="white"/>
<path d="M56.9284 32.7331C55.6387 32.1709 56.2054 30.2306 57.5949 30.4511C58.2486 30.5547 58.6944 31.1687 58.5907 31.8223C58.4679 32.5966 57.647 33.0463 56.9284 32.7331Z" fill="url(#paint10_linear_122_4)"/>
<path d="M33.8515 44.0384C34.6733 42.8462 36.1595 42.3045 37.5558 42.6883C41.1443 43.6747 40.7726 48.8797 37.0804 49.3463C34.1629 49.715 32.1827 46.4596 33.8515 44.0384Z" fill="url(#paint11_linear_122_4)" stroke="black"/>
<path d="M57.6322 64.5469C56.8359 65.7519 55.3625 66.315 53.9598 65.9504C50.355 65.0134 50.6187 59.7986 54.2971 59.2797C57.2036 58.8696 59.249 62.1 57.6322 64.5469Z" fill="url(#paint12_linear_122_4)" stroke="black"/>
<path d="M52.9076 49.5285C54.5347 49.4428 55.2603 51.5394 53.9282 52.4778L51.4029 54.2568C51.2665 54.3529 51.1168 54.4287 50.9586 54.4819C49.0094 55.1366 47.7552 52.445 49.5103 51.3737L52.1469 49.7641C52.3769 49.6237 52.6384 49.5427 52.9076 49.5285Z" fill="url(#paint13_linear_122_4)" stroke="black"/>
<rect x="0.5" y="0.5" width="105" height="85" rx="9.5" stroke="black"/>
<defs>
<linearGradient id="paint0_linear_122_4" x1="53" y1="0" x2="53" y2="86" gradientUnits="userSpaceOnUse">
<stop offset="0.148958" stop-color="white"/>
<stop offset="0.471875" stop-color="#3F96FC" stop-opacity="0.689583"/>
<stop offset="0.732292" stop-color="#F81C44" stop-opacity="0.94"/>
</linearGradient>
<linearGradient id="paint1_linear_122_4" x1="58.2764" y1="8.58616" x2="47.5161" y2="76.4138" gradientUnits="userSpaceOnUse">
<stop stop-color="#FF0D0D" stop-opacity="0"/>
<stop offset="0.367708" stop-color="#0D34FF" stop-opacity="0.374337"/>
<stop offset="0.982292" stop-color="#FF0D0D"/>
</linearGradient>
<linearGradient id="paint2_linear_122_4" x1="58.0797" y1="10.3628" x2="47.8575" y2="74.7991" gradientUnits="userSpaceOnUse">
<stop stop-color="#141313" stop-opacity="0.7"/>
<stop offset="0.492708" stop-color="#3956EE" stop-opacity="0.91"/>
<stop offset="0.633333" stop-color="#EF2F3B"/>
</linearGradient>
<linearGradient id="paint3_linear_122_4" x1="23.8552" y1="7.71483" x2="14.9026" y2="64.1475" gradientUnits="userSpaceOnUse">
<stop stop-color="white"/>
<stop offset="0.291905" stop-color="#E2E8FD" stop-opacity="0.888536"/>
<stop offset="0.52728" stop-color="#325EFB" stop-opacity="0.75"/>
<stop offset="0.684196" stop-color="#F81C44"/>
<stop offset="0.684296" stop-color="#F81C44"/>
</linearGradient>
<linearGradient id="paint4_linear_122_4" x1="57.4001" y1="13.0364" x2="48.4691" y2="69.3334" gradientUnits="userSpaceOnUse">
<stop offset="0.01173" stop-color="#FF0000" stop-opacity="0"/>
<stop offset="0.372917" stop-color="#244DDD" stop-opacity="0.91"/>
<stop offset="0.70625" stop-color="#F81C44"/>
</linearGradient>
<linearGradient id="paint5_linear_122_4" x1="57.4001" y1="13.0364" x2="48.4691" y2="69.3334" gradientUnits="userSpaceOnUse">
<stop offset="0.01173" stop-color="#FF0000" stop-opacity="0"/>
<stop offset="0.372917" stop-color="#244DDD" stop-opacity="0.91"/>
<stop offset="0.70625" stop-color="#F81C44"/>
</linearGradient>
<linearGradient id="paint6_linear_122_4" x1="57.4001" y1="13.0364" x2="48.4691" y2="69.3334" gradientUnits="userSpaceOnUse">
<stop offset="0.01173" stop-color="#FF0000" stop-opacity="0"/>
<stop offset="0.372917" stop-color="#244DDD" stop-opacity="0.91"/>
<stop offset="0.70625" stop-color="#F81C44"/>
</linearGradient>
<linearGradient id="paint7_linear_122_4" x1="57.4001" y1="13.0364" x2="48.4691" y2="69.3334" gradientUnits="userSpaceOnUse">
<stop offset="0.232292" stop-color="white" stop-opacity="0.82"/>
<stop offset="0.440625" stop-color="#325EFB" stop-opacity="0.91"/>
<stop offset="0.89375" stop-color="#F81C44"/>
</linearGradient>
<linearGradient id="paint8_linear_122_4" x1="57.4001" y1="13.0364" x2="48.4691" y2="69.3334" gradientUnits="userSpaceOnUse">
<stop offset="0.01173" stop-color="#FF0000" stop-opacity="0"/>
<stop offset="0.372917" stop-color="#244DDD" stop-opacity="0.91"/>
<stop offset="0.70625" stop-color="#F81C44"/>
</linearGradient>
<linearGradient id="paint9_linear_122_4" x1="51.2577" y1="36.7682" x2="51.2577" y2="13.281" gradientUnits="userSpaceOnUse">
<stop stop-color="#FF0000"/>
<stop offset="0.54854" stop-color="#1400FF" stop-opacity="0.45146"/>
<stop offset="1" stop-color="#FF0000" stop-opacity="0"/>
</linearGradient>
<linearGradient id="paint10_linear_122_4" x1="53.5474" y1="29.809" x2="53.117" y2="32.5221" gradientUnits="userSpaceOnUse">
<stop stop-color="#746BDA"/>
<stop offset="1" stop-color="#DC3939" stop-opacity="0"/>
</linearGradient>
<linearGradient id="paint11_linear_122_4" x1="43.5247" y1="42.8211" x2="41.8999" y2="53.0631" gradientUnits="userSpaceOnUse">
<stop stop-color="#C4C4C4" stop-opacity="0"/>
<stop offset="0.409375" stop-color="#3531FF" stop-opacity="0.455388"/>
<stop offset="0.898958" stop-color="#F41212"/>
</linearGradient>
<linearGradient id="paint12_linear_122_4" x1="47.9958" y1="65.9014" x2="49.4783" y2="55.6374" gradientUnits="userSpaceOnUse">
<stop stop-color="#F40303"/>
<stop offset="0.601983" stop-color="#0257FA" stop-opacity="0.63"/>
<stop offset="0.602083" stop-color="#284AD5" stop-opacity="0.5355"/>
<stop offset="0.940625" stop-color="#FF0101" stop-opacity="0"/>
</linearGradient>
<linearGradient id="paint13_linear_122_4" x1="47.6211" y1="46.6393" x2="44.9849" y2="63.2571" gradientUnits="userSpaceOnUse">
<stop offset="0.128125" stop-color="#F92424" stop-opacity="0"/>
<stop offset="0.539583" stop-color="#246CF9" stop-opacity="0.572464"/>
<stop offset="0.846875" stop-color="#F92424"/>
</linearGradient>
</defs>
</svg>
